 <svg  version="1.0" xmlns="http://www.w3.org/2000/svg"  width="300.000000pt" height="300.000000pt" viewBox="0 0 300.000000 300.000000"  preserveAspectRatio="xMidYMid meet">  <g transform="translate(0.000000,300.000000) scale(0.100000,-0.100000)" fill="#fcfcfc" stroke="none"> <path d="M1548 2900 c-77 -23 -125 -80 -158 -189 -28 -88 -26 -188 4 -292 l24 -83 -31 -141 c-17 -77 -31 -141 -31 -142 -1 0 -35 11 -76 25 -72 25 -85 26 -337 30 -218 3 -271 1 -317 -12 -77 -23 -135 -70 -171 -141 -25 -49 -30 -70 -29 -129 0 -45 6 -82 16 -101 16 -29 15 -30 -23 -67 -63 -61 -83 -110 -84 -203 0 -66 4 -89 25 -128 29 -57 76 -102 139 -131 44 -20 63 -21 479 -24 l432 -3 0 -44 c0 -44 -1 -45 -33 -45 -59 0 -67 -20 -67 -162 0 -118 -1 -126 -19 -121 -30 8 -588 -196 -635 -232 -22 -16 -51 -52 -65 -79 -23 -44 -26 -62 -26 -157 0 -103 1 -109 30 -150 78 -110 232 -111 309 0 24 33 30 52 30 94 0 28 -2 58 -5 65 -6 19 349 128 364 113 7 -7 14 -77 17 -172 6 -196 1 -189 143 -189 141 0 137 -4 137 145 0 68 5 147 12 175 14 61 -9 61 214 -6 l161 -49 -4 -56 c-16 -170 176 -268 304 -156 51 45 62 78 62 193 0 129 -20 177 -99 236 -39 29 -585 228 -625 228 l-25 0 0 130 c0 118 -2 130 -19 140 -11 5 -31 10 -45 10 -24 0 -26 3 -26 45 l0 45 429 0 c377 0 431 2 445 16 13 13 16 42 16 160 0 128 4 160 30 267 17 67 37 134 45 149 8 14 15 40 15 57 0 17 39 185 86 373 78 310 87 353 88 443 2 154 -43 237 -141 264 -45 13 -924 14 -965 1z m989 -60 c57 -34 68 -62 71 -185 3 -109 2 -113 -77 -431 -44 -176 -84 -348 -90 -382 -5 -33 -14 -70 -20 -81 -6 -11 -24 -75 -41 -143 -26 -105 -30 -142 -30 -255 0 -80 -4 -134 -10 -138 -6 -4 -193 -6 -416 -5 l-405 1 -35 -35 -34 -34 -21 29 c-19 26 -26 29 -82 30 -55 0 -130 16 -86 18 9 1 24 10 34 21 17 18 16 22 -9 85 -35 87 -35 161 -1 234 14 30 23 62 20 72 -3 9 -22 24 -43 33 -29 12 -32 15 -14 15 13 1 34 12 48 26 24 24 24 26 8 53 -19 34 -84 76 -139 91 -22 6 -125 11 -233 11 l-194 0 -29 -29 c-19 -20 -29 -40 -29 -59 0 -36 41 -89 73 -95 12 -2 -18 -5 -68 -6 -110 -1 -152 -12 -207 -54 -128 -96 -115 -287 25 -367 57 -33 49 -42 -11 -11 -77 40 -112 104 -112 205 0 81 10 107 66 175 36 44 44 60 39 81 -3 14 -8 57 -12 96 -4 59 -2 79 16 119 29 65 46 83 106 111 49 23 58 24 315 24 207 0 278 -3 320 -15 143 -39 158 -31 189 104 39 170 40 202 16 285 -8 27 -15 61 -14 75 0 17 5 9 14 -24 20 -74 31 -99 50 -115 28 -23 726 -28 780 -6 l38 16 -7 53 c-21 174 -19 209 23 330 l16 49 -28 24 -28 24 113 0 c94 0 118 -3 145 -20z m-1016 -17 c-37 -29 -90 -133 -92 -180 -2 -24 -2 -25 -6 -5 -8 43 27 134 67 174 21 21 44 38 51 38 8 0 -1 -12 -20 -27z m789 -12 c0 -6 -4 -12 -9 -16 -5 -3 -20 -36 -32 -73 -27 -82 -30 -214 -5 -281 9 -24 16 -45 16 -47 0 -2 -175 -4 -390 -4 l-389 0 -22 71 c-26 87 -23 179 10 256 43 99 15 92 437 96 203 1 372 3 377 5 4 1 7 -2 7 -7z m-1095 -1021 c38 -19 71 -41 73 -47 3 -10 -57 -13 -276 -13 l-279 0 -12 26 c-10 22 -9 31 4 51 l16 24 202 -3 203 -3 69 -35z m50 -186 c-60 -89 -60 -210 0 -298 14 -20 25 -38 25 -39 0 -1 -165 0 -367 1 -413 4 -418 5 -468 80 -49 75 -42 160 18 229 55 62 55 62 454 63 l362 0 -24 -36z m216 -540 c10 -9 29 -22 42 -28 20 -11 22 -20 27 -123 6 -131 10 -139 98 -164 65 -19 505 -175 540 -192 34 -16 71 -56 93 -99 24 -46 27 -194 5 -236 -27 -52 -62 -75 -121 -80 -48 -4 -59 -1 -91 23 -44 34 -64 78 -64 143 0 71 -17 84 -183 136 -185 58 -191 60 -217 46 -38 -20 -53 -75 -59 -215 l-6 -130 -92 -3 c-110 -3 -101 -17 -105 170 -3 125 -3 127 -32 157 -17 17 -35 31 -42 31 -6 0 -85 -22 -175 -50 -195 -59 -209 -69 -209 -158 0 -102 -62 -160 -157 -149 -93 10 -124 57 -125 190 -2 106 18 158 74 200 35 26 561 217 597 217 12 0 33 11 46 25 23 22 25 31 25 125 0 108 9 140 40 140 20 0 59 43 61 69 1 9 3 7 6 -5 2 -12 13 -30 24 -40z"/> <path d="M2419 2827 c-66 -35 -101 -110 -106 -231 -4 -76 -1 -104 20 -172 l25 -81 -24 -114 c-14 -63 -27 -135 -31 -161 -5 -44 -3 -49 28 -78 19 -17 45 -33 57 -37 47 -11 59 18 133 311 63 252 69 286 69 379 0 110 -14 150 -62 180 -43 27 -63 28 -109 4z m108 -41 c27 -23 28 -29 32 -122 3 -93 0 -111 -70 -393 -40 -163 -74 -298 -75 -299 -6 -9 -95 61 -91 71 2 7 19 78 37 159 l32 148 -27 81 c-23 69 -27 93 -23 163 5 89 36 176 72 201 31 23 81 18 113 -9z"/> <path d="M1488 2307 c-16 -15 -28 -40 -33 -68 -4 -24 -13 -69 -21 -99 -18 -69 -18 -73 4 -99 l17 -22 59 26 c59 26 59 26 325 25 146 0 284 -5 306 -10 73 -17 103 -13 119 18 16 31 46 159 46 196 0 55 -10 56 -421 56 l-376 0 -25 -23z m797 -24 c-3 -10 -16 -62 -28 -116 -17 -80 -23 -97 -36 -92 -64 26 -163 35 -382 35 -250 0 -308 -8 -362 -50 -32 -26 -38 -25 -28 3 5 12 19 70 31 130 l23 107 395 0 c371 0 394 -1 387 -17z"/> <path d="M637 2040 c-45 -13 -94 -57 -124 -108 -22 -37 -28 -59 -27 -102 1 -87 32 -130 94 -130 47 0 80 35 80 86 0 23 9 44 28 65 l27 30 214 -1 c202 0 217 -2 293 -27 93 -31 106 -27 127 36 24 76 -10 116 -125 146 -45 12 -114 15 -309 14 -137 0 -263 -5 -278 -9z m613 -49 c36 -12 69 -26 74 -31 9 -9 0 -77 -13 -98 -6 -10 -16 -8 -44 8 -69 41 -130 50 -343 50 -192 0 -202 -1 -235 -23 -46 -30 -71 -82 -64 -129 l5 -38 -45 0 c-40 0 -47 3 -55 26 -30 78 2 185 67 225 58 36 82 38 338 36 230 -3 255 -5 315 -26z"/> <path d="M1568 2036 c-95 -34 -141 -95 -146 -196 -4 -65 -2 -70 72 -231 41 -90 87 -179 101 -196 41 -52 100 -41 119 22 4 13 -17 71 -59 164 -76 168 -81 203 -36 253 l29 33 214 0 c248 0 276 -6 385 -86 37 -27 78 -49 91 -49 33 0 82 52 82 86 0 67 -171 182 -302 204 -95 15 -504 12 -550 -4z m610 -44 c110 -39 212 -115 212 -158 0 -27 -25 -54 -50 -54 -10 0 -38 16 -62 37 -23 20 -72 50 -108 67 l-65 31 -225 3 c-210 3 -227 2 -257 -17 -40 -25 -62 -58 -70 -104 -4 -29 7 -62 66 -192 39 -86 71 -160 71 -164 0 -4 -9 -16 -19 -25 -14 -13 -24 -15 -36 -8 -10 5 -55 90 -101 188 -73 157 -84 186 -84 234 0 86 51 153 138 181 15 4 140 7 277 6 229 -3 255 -5 313 -25z"/> <path d="M1644 1837 c-52 -45 -29 -113 51 -151 48 -23 72 -45 119 -111 32 -46 89 -65 196 -64 123 0 134 8 162 121 51 207 22 228 -308 228 -187 0 -194 -1 -220 -23z m460 -27 c36 -12 66 -25 66 -29 0 -5 -11 -58 -25 -119 -14 -61 -25 -112 -25 -114 0 -6 -236 8 -252 16 -9 4 -32 30 -49 58 -33 51 -84 92 -130 103 -37 9 -55 50 -34 81 15 24 17 24 199 24 157 0 194 -3 250 -20z"/> <path d="M2237 1722 c-20 -22 -50 -139 -43 -167 11 -43 88 -54 128 -18 26 24 46 97 39 150 -1 14 -42 37 -82 46 -18 5 -31 1 -42 -11z m80 -32 c27 0 27 2 7 -80 l-16 -65 -49 0 c-30 0 -48 4 -45 10 2 6 11 45 21 88 17 75 17 76 38 62 12 -8 32 -15 44 -15z"/> <path d="M1351 1608 c-41 -41 -60 -76 -67 -132 -11 -80 41 -177 118 -218 42 -23 48 -23 460 -26 l418 -3 26 26 c25 25 26 31 23 110 -6 123 -1 120 -207 117 -190 -2 -254 8 -309 47 -64 46 -67 47 -47 12 10 -18 39 -45 64 -59 45 -27 45 -27 257 -27 l213 0 0 -98 0 -98 -422 3 c-418 3 -424 3 -465 26 -78 41 -119 138 -93 217 13 40 75 115 94 115 6 0 33 -50 60 -111 64 -144 83 -171 131 -187 51 -17 100 -4 139 37 40 42 45 95 13 157 -28 52 -35 39 -16 -29 20 -74 -24 -141 -92 -139 -53 1 -78 28 -131 140 -77 162 -104 181 -167 120z"/> <path d="M1397 992 c-13 -14 -17 -38 -17 -98 0 -99 14 -124 70 -124 61 0 70 17 70 125 0 83 -2 96 -19 105 -31 16 -86 12 -104 -8z m103 -99 l0 -98 -50 -1 -50 0 1 98 1 98 49 0 49 0 0 -97z"/> <path d="M1045 658 c-121 -44 -236 -84 -255 -89 -53 -15 -113 -60 -135 -101 -19 -36 -19 -37 -1 -57 16 -18 31 -21 104 -21 90 0 103 3 376 86 98 31 184 53 191 50 7 -2 18 -27 25 -55 15 -63 38 -81 105 -81 72 0 87 20 119 153 47 196 45 199 -165 196 l-144 -1 -220 -80z m535 45 c-1 -5 -16 -69 -34 -143 l-34 -135 -59 -3 -60 -3 -7 33 c-15 78 -27 107 -46 113 -11 3 -122 -26 -262 -70 -225 -69 -250 -75 -331 -75 l-88 0 16 30 c8 16 27 37 41 46 14 10 136 58 272 107 l247 91 165 6 c91 3 168 7 173 8 4 1 7 -1 7 -5z"/> <path d="M1657 695 c-15 -14 -29 -51 -41 -108 -13 -56 32 -78 359 -171 116 -34 245 -36 275 -6 31 31 2 86 -64 125 -52 30 -458 175 -490 175 -14 0 -31 -7 -39 -15z m283 -101 c219 -78 238 -86 275 -126 l40 -43 -90 -3 c-87 -3 -99 0 -305 64 -118 36 -216 67 -218 69 -2 1 5 33 14 69 13 54 20 66 33 61 9 -4 122 -44 251 -91z"/> <path d="M646 325 c-9 -13 -16 -34 -16 -45 0 -55 65 -120 120 -120 63 0 128 74 116 133 -10 52 -21 57 -116 57 -82 0 -89 -2 -104 -25z m197 -22 c7 -35 -15 -88 -41 -102 -26 -14 -78 -14 -104 0 -26 14 -48 67 -41 102 l5 27 88 0 88 0 5 -27z"/> <path d="M1397 332 c-22 -24 -23 -119 -1 -150 20 -28 83 -31 107 -4 20 22 24 141 5 160 -19 19 -92 15 -111 -6z m103 -74 l0 -73 -47 1 -48 1 -3 72 -3 71 51 0 50 0 0 -72z"/> <path d="M2056 328 c-26 -36 -20 -83 15 -122 73 -84 199 -35 199 77 0 54 -23 67 -118 67 -72 0 -83 -2 -96 -22z m192 -39 c2 -27 -3 -44 -23 -68 -65 -77 -195 -1 -159 94 5 13 21 15 93 13 l86 -3 3 -36z"/> </g> </svg> 